<?xml version="1.0" encoding="utf-8"?>
<!-- Generator: Adobe Illustrator 22.1.0, SVG Export Plug-In . SVG Version: 6.00 Build 0)  -->
<svg version="1.1" id="Layer_1" xmlns="http://www.w3.org/2000/svg" xmlns:xlink="http://www.w3.org/1999/xlink" x="0px" y="0px"
	 viewBox="0 0 276 74" style="enable-background:new 0 0 276 74;" xml:space="preserve">
<title>Mizi Khanapi</title>
<desc>Created with Sketch.</desc>
<g>
	<path d="M98.5,37.9c-0.2-0.3-0.5-0.6-0.9-0.9c-0.4-0.3-0.7-0.5-1.1-0.6c-0.4-0.1-0.6-0.1-0.7,0.1l-0.5,1.2c-0.5,1-1,2-1.5,3
		c-0.5,1-1.1,2-1.7,3c-0.6,0.9-1.3,1.8-2.1,2.5c-0.8,0.7-1.6,1.2-2.5,1.6h-0.3c-0.2,0-0.3-0.2-0.2-0.7c0-0.5,0.2-1.1,0.3-1.8
		c0.2-0.8,0.4-1.6,0.7-2.6c0.3-1,0.6-2,1-3s0.7-2.1,1.1-3.1c0.4-1,0.7-1.9,1-2.8c0.1-0.4,0.3-0.7,0.4-1.2c0.1-0.4,0.3-0.8,0.4-1.1
		c0.1-0.3,0.2-0.6,0.3-0.8c0.1-0.2,0.1-0.3,0-0.2c0.2-0.7,0-1.5-0.4-2.3c-0.4-0.8-1-1.5-1.7-2.1c-0.7-0.6-1.4-1-2.1-1.3
		c-0.7-0.3-1.3-0.3-1.7-0.1l-0.4,0.6c-0.1,0.8-0.3,1.6-0.5,2.5c-0.1-0.5-0.3-1-0.6-1.4c-0.1-0.1-0.2-0.2-0.5-0.4
		c-0.3-0.2-0.6-0.4-1-0.7c-0.4-0.2-0.7-0.4-1-0.6c-0.3-0.2-0.6-0.3-0.8-0.3c-0.1,0.2-0.4,0.5-0.9,1c-0.4,0.4-1,0.9-1.5,1.3
		c-0.6,0.5-1.1,1-1.8,1.4c-0.6,0.5-1.2,0.9-1.7,1.2c-0.5,0.4-0.9,0.6-1.2,0.7c-0.3,0.1-0.4,0.1-0.3-0.1l0.1-0.3
		c0.1-0.3,0.2-0.4,0.3-0.6l0,0l1.2-2.5c0.2-0.9,0.2-1.6,0.1-2.1c-0.1-0.6-0.3-1.2-0.6-1.6c-0.3-0.5-0.7-0.9-1.2-1.3
		c-0.5-0.4-1-0.7-1.5-1c-0.5-0.3-1.1-0.5-1.6-0.8c-0.1,0.7-0.3,1.4-0.4,1.8s-0.3,1-0.5,1.4c-0.2,0.5-0.4,1-0.6,1.6
		c-0.2,0.6-0.4,1.1-0.6,1.7c-0.2,0.6-0.3,1.1-0.3,1.7c-0.1,0.6-0.1,1.1,0,1.6c0.1,0.6,0.3,1.2,0.7,1.7c-0.4,0.9-0.8,1.8-1.1,2.8
		c-0.4,0.9-0.7,1.8-1,2.6l-0.3,0.7c-0.1,0.2,0,0.5,0.3,0.8c0.3,0.3,0.6,0.5,0.9,0.8c-0.3,0.6-0.6,1.1-0.9,1.7c-0.5,1-1.1,2-1.7,3
		c-0.6,0.9-1.3,1.8-2.1,2.5c-0.8,0.7-1.6,1.2-2.5,1.6h-0.3c-0.2,0-0.3-0.2-0.2-0.7c0-0.5,0.2-1.1,0.3-1.8c0.2-0.8,0.4-1.6,0.7-2.6
		c0.3-1,0.6-2,1-3s0.7-2.1,1.1-3.1c0.4-1,0.7-1.9,1-2.8c0.1-0.4,0.3-0.7,0.4-1.2c0.1-0.4,0.3-0.8,0.4-1.1c0.1-0.3,0.2-0.6,0.3-0.8
		c0.1-0.2,0.1-0.3,0-0.2c0.2-0.7,0-1.5-0.4-2.3c-0.4-0.8-1-1.5-1.7-2.1c-0.7-0.6-1.4-1-2.1-1.3c-0.7-0.3-1.3-0.3-1.7-0.1l-0.4,0.6
		c-0.2,1.1-0.5,2.4-0.8,3.7c-0.4,1.4-0.7,2.8-1.1,4.2c-0.6,2.1-1.1,4.2-1.6,6.3c-0.5,2.1-0.8,4-1,5.6v0c-0.1,0.6-0.1,1.1-0.1,1.7
		c0,0.5,0.1,1.1,0.1,1.6c0.2,1.4,0.7,2.6,1.4,3.5c0.7,0.9,1.7,1.4,3,1.5c0.6,0,1.2-0.1,1.7-0.3c0.5-0.2,1-0.4,1.5-0.6
		s0.9-0.5,1.2-0.8c0.4-0.3,0.7-0.6,0.9-0.8c0.8-0.8,1.5-1.8,2.2-2.8c0.1,0.4,0.1,0.7,0.3,1.1c0.2,0.5,0.3,0.8,0.5,1
		c1.1-0.7,2-1.2,2.7-1.5c0.7-0.2,1.3-0.4,1.8-0.4c0.4,0,0.7,0,0.9,0.1c0.2,0.1,0.4,0.1,0.4,0.2c1,1.2,1.6,2.5,1.9,4
		c0.1,0.5,0.1,1.1,0.1,1.7c0,0.6,0,1.1-0.1,1.7c-0.6-0.2-1.3-0.4-1.9-0.6s-1.2-0.4-1.9-0.5c-0.7-0.1-1.4-0.2-2.2-0.3
		c-0.8-0.1-1.6-0.1-2.6-0.1c-1.8,0-3.5,0.3-5,0.9c-0.1,0-0.2,0.1-0.3,0.1c-0.5,0.2-1,0.4-1.5,0.5c-0.6,0.1-1.1,0.2-1.7,0.2
		c-0.8,0-1.7-0.2-2.6-0.5c-0.6-0.2-1.1-0.7-1.5-1.4c-0.4-0.7-0.6-1.6-0.8-2.7c-0.2-1.5-0.3-3.2-0.2-5c0.1-1.9,0.3-3.9,0.6-6
		c0.3-2.1,0.7-4.4,1.2-6.6c0.5-2.3,1.1-4.5,1.7-6.7c0.6-2.2,1.2-4.3,1.9-6.4c0.7-2,1.3-3.9,1.9-5.5c0.3-0.9,0.7-1.8,1-2.6
		c0,0.3,0,0.6,0,0.9c0,0.9-0.1,1.7-0.2,2.5c-0.1,0.8-0.1,1.6-0.1,2.4c0,0.8,0,1.5,0,2.1c0.1,0.4,0.3,0.8,0.6,1.3
		c0.4,0.5,0.8,1,1.3,1.5c0.5,0.5,1,0.9,1.6,1.3c0.6,0.4,1,0.6,1.5,0.7c0.1-1,0.2-1.9,0.5-2.7c0.2-0.8,0.4-1.5,0.6-2.3
		c0.2-0.7,0.4-1.5,0.6-2.2c0.2-0.7,0.3-1.5,0.4-2.4c0-0.2-0.2-0.5-0.4-0.8c-0.2-0.4-0.5-0.8-0.9-1.2c-0.4-0.4-0.8-0.9-1.2-1.3
		c-0.5-0.5-0.9-0.9-1.4-1.2c-0.5-0.4-0.9-0.7-1.3-0.9c-0.2-0.1-0.3-0.1-0.4-0.2c0.4-0.7,0.7-1.3,0.9-1.6c0.1-0.3-0.2-0.8-0.7-1.5
		c-0.5-0.7-1.2-1.4-1.9-2.1c-0.3-0.4-0.6-0.7-0.9-1c-0.4-0.3-0.7-0.6-1.1-0.8c-0.4-0.2-0.7-0.3-1-0.4c-0.3-0.1-0.5,0-0.7,0.2
		c-3.4,5.2-6.3,10.6-9,16.2c-2.6,5.6-5.1,11.4-7.5,17.2l-1.5,3.6v0c-0.5,1.3-1.1,2.7-1.6,4c-0.5,1.3-1.1,2.7-1.6,4
		c0.3-1.7,0.6-3.3,0.9-4.8s0.7-3,1-4.5c0.4-1.5,0.7-3,1.1-4.4c0.4-1.5,0.8-3,1.2-4.5c0.8-3.1,1.7-6.4,2.6-10s1.8-7.6,2.8-12.2
		c0-0.5-0.3-1.1-0.8-1.8C44.3,4.7,43.7,4,43,3.3c-0.7-0.6-1.3-1.1-1.9-1.5c-0.6-0.3-1-0.3-1.1,0L40,2c-0.1,0.3-0.1,0.5-0.2,0.8
		c0,0.3-0.1,0.6-0.2,0.8c-1.4,2.4-2.8,5-4.3,7.8c-1.5,2.8-3,5.7-4.5,8.7c-1.3,2.6-2.6,5.1-3.9,7.6c-1.3,2.5-2.6,4.9-3.9,7.2
		s-2.6,4.4-3.8,6.4c-1.2,2-2.5,3.7-3.6,5.2c-1.2,1.5-2.3,2.6-3.3,3.4s-2,1.3-2.9,1.3c-0.6-0.1-1.2-0.3-1.7-0.6
		c-0.5-0.3-0.9-0.7-1.3-1.1s-0.7-0.9-0.9-1.4c-0.3-0.5-0.5-1-0.7-1.6c-0.1-0.4-0.2-0.7-0.3-1.1c-0.1-0.4-0.1-0.7-0.2-1
		c-0.1-0.4-0.1-0.9-0.2-1.3C4,42.8,4,42.4,3.9,42v-0.4c-0.1-1.7,0.1-3.7,0.6-6c0.4-2.3,1.1-4.7,1.9-7.2c0.8-2.5,1.8-5,3-7.4
		c1.2-2.4,2.4-4.6,3.8-6.5c1.4-1.9,2.8-3.4,4.4-4.6c1.6-1.1,3.1-1.7,4.7-1.6c0.4,0.1,0.8,0.4,1.1,0.9c0.3,0.5,0.5,1.1,0.6,1.8
		c0.2,1,0.2,2,0.2,3c0,1-0.1,1.7-0.2,2.2c-0.1,1.2,0.1,1.9,0.6,2.2c0.5,0.3,1.1,0.2,1.8-0.2c0.7-0.4,1.4-1,2.1-1.8
		c0.7-0.8,1.1-1.8,1.3-2.8l0,0c0.1-0.3,0.1-0.6,0.1-1.1c0-0.4-0.1-0.8-0.1-1.3c-0.1-0.9-0.4-1.8-0.8-2.8c-0.4-1-1-1.9-1.6-2.7
		S25.9,4,25.1,3.4c-0.8-0.6-1.8-0.9-2.8-0.9c-1.7,0-3.3,0.3-4.8,1.1c-1.5,0.8-3,1.8-4.3,3.1c-1.3,1.3-2.6,2.9-3.8,4.7
		c-1.2,1.8-2.2,3.7-3.2,5.7c-0.9,2-1.8,4.1-2.5,6.3c-0.7,2.2-1.3,4.3-1.8,6.4c-0.5,2.1-0.8,4.1-1.1,6.1c-0.2,1.9-0.3,3.7-0.2,5.2
		c0,0.4,0,0.9,0.1,1.4C0.8,43,0.9,43.6,1,44.1c0.2,1.3,0.5,2.7,0.9,4.2c0.4,1.5,1,2.8,1.7,4c0.7,1.2,1.6,2.2,2.6,3
		c1,0.8,2.2,1.2,3.6,1.2c1.3,0,2.6-0.3,3.8-1.1c1.2-0.8,2.3-1.7,3.4-2.8c1.1-1.1,2-2.4,3-3.7c0.9-1.4,1.8-2.6,2.5-3.9
		c0.3-0.5,0.6-1,0.9-1.5c0.3-0.4,0.6-0.8,0.8-1.2c0.8-1.2,1.6-2.6,2.5-4.1c0.8-1.5,1.6-2.9,2.3-4.1c1-1.8,2-3.6,2.9-5.5
		c0.9-1.8,1.9-3.7,2.8-5.6c-0.7,2.8-1.4,5.7-2.1,8.5c-0.7,2.8-1.3,5.5-1.8,8.1s-0.8,4.9-1,7c-0.2,2.1-0.2,3.9,0,5.3
		c0.3,2,1.1,3.4,2.3,4l0,0c0.7,0.4,1.4,0.6,2.1,0.5c0.7-0.1,1.3-0.4,1.9-0.8c0.6-0.4,1.1-0.9,1.5-1.5c0.4-0.6,0.8-1.2,1.1-1.8
		c1.6-4.1,3.3-8.2,5.1-12.3c1.8-4.1,3.7-8.2,5.7-12.4c-0.5,2-0.9,4.1-1.3,6.2c-0.4,2.1-0.7,4.1-0.9,6c-0.2,2-0.3,3.8-0.3,5.6
		c0,1.8,0.1,3.4,0.4,4.9c0.4,2.3,1.1,4.2,2.1,5.8c1.1,1.6,2.5,2.6,4.3,3.2c0.6,0.2,1.3,0.3,1.9,0.4c0.1,0,0.3,0,0.4,0
		c-0.3,0.5-0.5,1-0.7,1.5c-0.5,1.5-0.6,3-0.4,4.7c0.2,1.3,0.7,2.5,1.4,3.4c0.7,0.9,1.5,1.7,2.5,2.3c1,0.6,2,1,3.2,1.3
		c1.2,0.3,2.3,0.4,3.5,0.4c1.7,0,3.3-0.2,4.7-0.6c1.4-0.4,2.7-1,3.8-1.8c1.1-0.8,2.2-1.8,3.1-3c0.9-1.2,1.8-2.5,2.5-4l3.2,2.2
		l2.3,1.6c0.4,0.2,0.9,0.2,1.6-0.1c0.7-0.2,1.4-0.6,2-1.1c0.6-0.5,1-1,1.3-1.5c0.3-0.5,0.1-1-0.5-1.4c-0.2-0.1-0.3-0.2-0.4-0.3
		c-0.1-0.1-0.3-0.2-0.4-0.3l0,0.1c-1.2-0.8-2.4-1.6-3.5-2.4c-1.2-0.8-2.3-1.5-3.5-2.2c0.2-0.9,0.2-1.9,0.2-2.8
		c0-0.9-0.1-1.9-0.3-2.9c-0.3-1.6-0.8-3.2-1.5-4.7s-1.9-2.8-3.3-3.8c0.8-0.8,1.5-1.7,2.2-2.6s1.1-1.6,1.3-2l1.1-1.9
		c0.7-1.2,1.3-2.4,1.9-3.6c0.2-0.4,0.3-0.7,0.5-1c-0.5,1.9-1,3.9-1.5,5.8c-0.5,2.1-0.8,4-1,5.6v0c-0.1,0.6-0.1,1.1-0.1,1.7
		c0,0.5,0.1,1.1,0.1,1.6c0.2,1.4,0.7,2.6,1.4,3.5c0.7,0.9,1.7,1.4,3,1.5c0.6,0,1.2-0.1,1.7-0.3c0.5-0.2,1-0.4,1.5-0.6
		s0.9-0.5,1.2-0.8c0.4-0.3,0.7-0.6,0.9-0.8c1.5-1.6,2.9-3.5,4.2-5.7s2.4-4.3,3.3-6.3l0,0.1C98.7,38.5,98.7,38.2,98.5,37.9z
		 M71.8,64.6c-0.7,1.1-1.4,2-2.2,2.7c-0.8,0.8-1.6,1.4-2.5,1.8s-1.9,0.6-2.9,0.6c-0.5,0-1.1-0.1-1.7-0.2c-0.6-0.1-1.2-0.3-1.7-0.6
		c-0.5-0.3-1-0.6-1.4-1.1c-0.4-0.5-0.6-1.1-0.7-1.8c-0.2-1.1,0-2,0.5-2.7c0.5-0.8,1.2-1.4,2.1-1.9c0.9-0.5,2-0.9,3.1-1.1
		c1.2-0.2,2.3-0.4,3.3-0.4c2.2,0,4.2,0.4,6.1,1.2C73.1,62.4,72.5,63.5,71.8,64.6z M75.1,34.1c-0.2,0.6-0.5,1.2-0.8,1.8
		C73.8,37,73,38.4,72,40c-0.5,0.8-1.1,1.5-1.9,2.3c0.7-1.3,1.3-2.5,1.9-3.8l0,0.1c0.1-0.2,0.1-0.5-0.2-0.8c-0.2-0.3-0.5-0.6-0.9-0.9
		c0,0-0.1-0.1-0.1-0.1c0.1-0.2,0.1-0.4,0.2-0.6c0.4-1.1,1-2.2,1.5-3.4H73c0.6,0,1.1,0,1.4-0.1c0.4-0.1,0.8-0.2,1.2-0.3
		c0.1,0,0.1,0,0.1,0C75.6,32.9,75.4,33.5,75.1,34.1z M76.6,32.3l0.7-0.2C77.1,32.3,76.8,32.3,76.6,32.3z"/>
	<path d="M88.5,21.7c0.4,0.5,0.8,1,1.3,1.5c0.5,0.5,1,0.9,1.6,1.3c0.6,0.4,1,0.6,1.5,0.7c0.1-1,0.2-1.9,0.5-2.7
		c0.2-0.8,0.4-1.5,0.6-2.3c0.2-0.7,0.4-1.5,0.6-2.2c0.2-0.7,0.3-1.5,0.4-2.4c0-0.2-0.2-0.5-0.4-0.8c-0.2-0.4-0.5-0.8-0.9-1.2
		c-0.4-0.4-0.8-0.9-1.2-1.3c-0.5-0.5-0.9-0.9-1.4-1.2c-0.5-0.4-0.9-0.7-1.3-0.9c-0.4-0.2-0.7-0.3-1-0.3l-0.6,1
		c0.1,0.8,0.1,1.6,0,2.5c0,0.9-0.1,1.7-0.2,2.5c-0.1,0.8-0.1,1.6-0.1,2.4c0,0.8,0,1.5,0,2.1C87.9,20.8,88.1,21.2,88.5,21.7z"/>
	<path d="M276,37.9c-0.2-0.3-0.5-0.6-0.9-0.9c-0.4-0.3-0.7-0.5-1.1-0.6c-0.4-0.1-0.6-0.1-0.7,0.1l-0.5,1.2c-0.5,1-1,2-1.5,3
		c-0.5,1-1.1,2-1.7,3c-0.6,0.9-1.3,1.8-2.1,2.5c-0.8,0.7-1.6,1.2-2.5,1.6h-0.3c-0.2,0-0.3-0.2-0.2-0.7c0-0.5,0.2-1.1,0.3-1.8
		c0.2-0.8,0.4-1.6,0.7-2.6c0.3-1,0.6-2,1-3s0.7-2.1,1.1-3.1c0.4-1,0.7-1.9,1-2.8c0.1-0.4,0.3-0.7,0.4-1.2c0.1-0.4,0.3-0.8,0.4-1.1
		c0.1-0.3,0.2-0.6,0.3-0.8c0.1-0.2,0.1-0.3,0-0.2c0.2-0.7,0-1.5-0.4-2.3s-1-1.5-1.7-2.1c-0.7-0.6-1.4-1-2.1-1.3
		c-0.7-0.3-1.3-0.3-1.7-0.1l-0.4,0.6c-0.2,1.1-0.5,2.4-0.8,3.7c-0.4,1.4-0.7,2.8-1.1,4.2c0,0,0,0,0,0c0-0.4-0.1-0.7-0.1-1.1
		c-0.1-0.9-0.3-1.8-0.6-2.6s-0.7-1.6-1.2-2.2c-0.5-0.7-1.2-1.2-1.9-1.7c-0.8-0.4-1.7-0.8-2.7-0.9c-1.5-0.2-3,0.1-4.5,0.8
		c-1.5,0.8-2.9,1.7-4.1,3c-0.3-0.6-0.8-1.1-1.3-1.7c-0.6-0.5-1.2-1-1.8-1.3c-0.6-0.4-1.2-0.6-1.8-0.7c-0.6-0.1-1-0.1-1.3,0.1
		c-0.1,1.2-0.3,2.6-0.5,4c-0.3,1.4-0.5,2.9-0.8,4.5c-0.2,1-0.4,2-0.6,3c-0.2,1-0.3,2-0.5,2.9V39c-0.3,1.3-0.6,2.6-0.9,3.9
		c-0.2,0.6-0.3,1.3-0.5,1.9c-0.3,0.5-0.7,0.9-1,1.3c-0.7,0.7-1.4,1.3-2.3,1.6h-0.3c0.1-0.1,0.1-0.2,0.1-0.2c-0.1-0.4-0.1-0.9,0-1.5
		c0-0.6,0.1-1.2,0.2-1.9c0.1-0.7,0.2-1.4,0.4-2.1c0.1-0.7,0.3-1.4,0.4-2c0.1-0.3,0.1-0.6,0.2-0.8s0.1-0.5,0.2-0.7
		c0-0.4-0.1-0.9-0.3-1.4c-0.2-0.5-0.6-1-1-1.4s-0.9-0.9-1.4-1.3c-0.5-0.4-1.1-0.7-1.6-1c0.3,0.1,0.5,0.2,0.9,0.2c0.3,0,0.6,0,0.9,0
		c0.3,0,0.5-0.1,0.7-0.3c0.2-0.1,0.3-0.3,0.3-0.5c-0.1-0.8-0.3-1.7-0.5-2.5c-0.2-0.8-0.5-1.6-0.9-2.4c-0.4-0.8-0.9-1.4-1.5-2
		c-0.6-0.6-1.3-1-2.1-1.2c-0.5-0.1-0.9-0.2-1.3-0.3c-0.4-0.1-0.8-0.1-1.2-0.1c-1.4,0-2.7,0.3-4,0.9c-1.2,0.6-2.4,1.4-3.4,2.4
		c-1,1-2,2.2-2.8,3.5c-0.8,1.3-1.5,2.7-2.1,4.1c-0.5,1.4-1,2.8-1.2,4.2s-0.4,2.7-0.3,3.9c0,0.1,0,0.2,0,0.4
		c-0.4,0.6-0.8,1.1-1.2,1.6c-1,1.2-1.9,2-2.7,2.4h0c-0.2,0.1-0.2,0.2-0.2,0.3c-0.1-0.9-0.1-1.7-0.1-2.5s0.1-1.5,0.2-2.3
		c0.1-0.7,0.3-1.5,0.4-2.2c0.2-0.8,0.4-1.6,0.6-2.5c0.3-1,0.5-2.2,0.9-3.7c0.3-1.4,0.6-3,1-4.6c0.1-0.5-0.1-1.1-0.4-1.8
		c-0.3-0.7-0.7-1.3-1.2-1.9c-0.5-0.6-1-1.1-1.6-1.5c-0.6-0.4-1.1-0.6-1.5-0.6c-1.3,0.1-2.6,0.5-3.8,1.3c-1.2,0.8-2.2,1.8-3.2,2.9
		c-0.3-0.6-0.7-1.2-1.3-1.8c-0.6-0.6-1.2-1-1.8-1.4c-0.6-0.4-1.3-0.7-1.9-0.8c-0.6-0.2-1.1-0.2-1.4,0c-0.2,1.3-0.4,2.7-0.6,4.2
		c-0.3,1.5-0.5,3-0.8,4.5c-0.3,1.3-0.5,2.6-0.7,3.9c-0.2,1.3-0.4,2.6-0.6,3.9c-0.1,0.6-0.1,1.3-0.2,1.9c-0.1,0.1-0.1,0.3-0.2,0.4
		c-0.5,0.9-1.2,1.8-1.8,2.5c-0.7,0.7-1.4,1.3-2.3,1.6h-0.3c0.1-0.1,0.1-0.2,0.1-0.2c-0.1-0.4-0.1-0.9,0-1.5c0-0.6,0.1-1.2,0.2-1.9
		c0.1-0.7,0.2-1.4,0.4-2.1c0.1-0.7,0.3-1.4,0.4-2c0.1-0.3,0.1-0.6,0.2-0.8c0.1-0.3,0.1-0.5,0.2-0.7c0-0.4-0.1-0.9-0.3-1.4
		s-0.6-1-1-1.4c-0.4-0.4-0.9-0.9-1.4-1.3c-0.5-0.4-1.1-0.7-1.6-1c0.3,0.1,0.5,0.2,0.9,0.2c0.3,0,0.6,0,0.9,0c0.3,0,0.5-0.1,0.7-0.3
		c0.2-0.1,0.3-0.3,0.3-0.5c-0.1-0.8-0.3-1.7-0.5-2.5c-0.2-0.8-0.5-1.6-0.9-2.4s-0.9-1.4-1.5-2c-0.6-0.6-1.3-1-2.1-1.2
		c-0.5-0.1-0.9-0.2-1.3-0.3c-0.4-0.1-0.8-0.1-1.2-0.1c-1.4,0-2.7,0.3-4,0.9c-1.2,0.6-2.4,1.4-3.4,2.4c-1,1-2,2.2-2.8,3.5
		s-1.5,2.7-2.1,4.1c-0.5,1.4-1,2.8-1.2,4.2s-0.4,2.7-0.3,3.9c0,0.1,0,0.2,0,0.4c-0.4,0.6-0.8,1.1-1.2,1.6c-1,1.2-1.9,2-2.7,2.4h0
		c-0.2,0.1-0.2,0.2-0.2,0.3c-0.1-0.9-0.1-1.7-0.1-2.5s0.1-1.5,0.2-2.3c0.1-0.7,0.3-1.5,0.4-2.2c0.2-0.8,0.4-1.6,0.6-2.5
		c0.3-1,0.5-2.2,0.9-3.7c0.3-1.4,0.6-3,1-4.6c0.1-0.5-0.1-1.1-0.4-1.8c-0.3-0.7-0.7-1.3-1.2-1.9c-0.5-0.6-1-1.1-1.6-1.5
		c-0.6-0.4-1.1-0.6-1.5-0.6c-1.1,0.1-2.1,0.4-3,0.9c-0.9,0.5-1.8,1.2-2.7,1.9l0.4-1.2c0.3-1.1,0.7-2.2,1-3.4c0.4-1.2,0.7-2.4,1-3.5
		c0.3-1.1,0.6-2.1,0.8-3c0.2-0.9,0.4-1.6,0.5-2.1c0.1-0.7-0.2-1.4-0.7-2.2c-0.5-0.8-1.2-1.4-1.9-2c-0.7-0.6-1.5-1-2.3-1.3
		c-0.2-0.1-0.4-0.1-0.6-0.2c0.3-0.8,0.6-1.6,0.8-2.4c0-0.2-0.2-0.5-0.5-0.9c-0.3-0.4-0.6-0.9-1.1-1.4s-0.9-1-1.4-1.5
		c-0.5-0.5-1-0.9-1.4-1.3c-0.4-0.4-0.8-0.6-1.2-0.8c-0.3-0.2-0.5-0.1-0.6,0l-0.1,0.2c-0.3,1.3-0.8,2.8-1.7,4.6
		c-0.8,1.7-1.9,3.6-3.2,5.6s-2.8,4.1-4.5,6.3c-1.7,2.2-3.5,4.4-5.5,6.7c-2,2.3-4,4.5-6.1,6.8c-2.1,2.3-4.3,4.5-6.5,6.6
		c1-2.3,1.9-4.7,2.8-7.2c0.9-2.5,1.6-5,2.3-7.6c0.6-2.6,1.1-5.1,1.3-7.7c0.3-2.6,0.3-5.1,0-7.5c-0.1-0.2-0.4-0.4-0.8-0.7
		c-0.4-0.3-0.9-0.5-1.5-0.8c-0.6-0.3-1.2-0.5-1.8-0.8c-0.7-0.2-1.3-0.4-1.8-0.6c-0.5-0.1-1-0.2-1.4-0.2c-0.4,0-0.6,0.1-0.6,0.3v0
		c0.3,3.2,0.2,6.6-0.2,10.1c-0.4,3.5-1.1,7-1.9,10.5c-0.8,3.5-1.8,6.9-2.8,10.2c-1.1,3.3-2.1,6.4-3,9.2l-0.6,1.7
		c-0.4,0.4-0.9,0.8-1.4,1.1s-0.9,0.7-1.4,1.1c-0.2,0.2-0.3,0.4-0.3,0.8c0,0.3,0,0.7,0.1,1c0.1,0.4,0.2,0.7,0.4,1.1
		c0.2,0.4,0.4,0.7,0.7,0.9c-0.4,1.5-0.8,2.9-1,4.1c-0.2,1.2-0.2,2.1,0,2.8c0.1,0.3,0.4,0.6,0.9,0.6c0.5,0.1,1.1,0,1.7-0.1
		c0.6-0.1,1.1-0.4,1.7-0.7c0.5-0.3,0.8-0.6,0.9-1c-0.1-1.1,0.2-2.4,0.7-4c0.5-1.6,1.2-3.3,2-5.2c0.7-0.5,1.5-1,2.2-1.6
		c0.7-0.5,1.5-1.1,2.2-1.7c1.8,3.5,3.8,6.5,6.2,8.9c2.4,2.4,4.9,4.4,7.5,5.9c2.6,1.5,5.3,2.6,8,3.2c2.7,0.7,5.3,1,7.7,1
		c0.3,0,0.7-0.3,1.2-1c0.5-0.7,1-1.4,1.5-2.3c0.5-0.8,0.8-1.7,1-2.4c0.2-0.8,0.2-1.3-0.1-1.5c-0.4,0-0.9,0.1-1.4,0.1
		c-0.5,0-1,0-1.4,0c-2.2,0-4.4-0.2-6.8-0.6c-2.3-0.4-4.7-1.2-7-2.3c-2.4-1.1-4.7-2.5-6.9-4.4c-2.3-1.8-4.4-4.1-6.5-6.9
		c3.3-2.6,6.7-5.4,10-8.4c3.4-3,6.5-6,9.4-9.2c2.9-3.2,5.4-6.4,7.5-9.7c0.7-1.1,1.4-2.3,2-3.4c-0.2,0.9-0.3,1.9-0.6,2.9
		c-0.3,1.2-0.6,2.5-0.9,3.7c-0.3,1.3-0.6,2.5-1,3.7l-0.9,3.1c-0.5,2-1.1,3.9-1.6,5.9c-0.5,2-1,4-1.4,6s-0.6,4-0.8,6
		c-0.1,2-0.1,4,0.1,5.9c0.1,0.4,0.4,0.8,1.1,1.2c0.6,0.4,1.3,0.8,1.9,1c0.7,0.3,1.3,0.4,1.9,0.5c0.6,0,0.8-0.1,0.8-0.5
		c-0.2-2.2-0.1-4.4,0.1-6.5c0.3-2.1,0.6-4.3,1.2-6.3c0.7-1.2,1.4-2.4,2.2-3.4c0.7-1.1,1.6-2.1,2.5-3.1l1.6-2c0.1,0.4,0.1,0.8,0,1.4
		c-0.1,0.6-0.2,1.2-0.3,1.8c-0.4,1.5-0.7,2.9-0.9,4.1s-0.5,2.3-0.6,3.3c-0.1,1-0.2,2-0.3,2.9c0,0.9,0,1.9,0.1,2.8
		c0.1,1.1,0.4,2.1,0.8,2.9c0.4,0.8,0.9,1.5,1.4,2s1.2,0.9,1.9,1.1c0.7,0.2,1.4,0.4,2,0.4c1.1,0,2.1-0.4,3.1-1.2
		c1-0.8,1.9-1.7,2.7-2.9c0.1-0.1,0.2-0.3,0.3-0.4c0.2,0.4,0.5,0.8,0.8,1.2c0.6,0.8,1.4,1.4,2.3,2s2,0.9,3.2,1c1.3,0,2.6-0.5,3.7-1.5
		c1.2-1,2.2-2.1,3.2-3.5c0.4,1.4,1,2.6,1.9,3.6s2.2,1.5,3.7,1.6c0.7,0,1.3,0,1.8-0.2c0.5-0.2,1-0.4,1.5-0.7c0.4-0.3,0.8-0.6,1.2-0.9
		s0.6-0.6,0.8-0.8c0.2-0.2,0.4-0.5,0.6-0.8c0.2,0.3,0.5,0.6,0.9,0.9c0.6,0.4,1.3,0.8,1.9,1c0.7,0.3,1.3,0.4,1.9,0.5
		c0.6,0,0.8-0.1,0.8-0.5c-0.2-2.1-0.1-4.2,0-6.3c0.2-2.1,0.5-4.1,1-6.1c0.8-1.3,1.5-2.6,2.3-3.7c0.8-1.1,1.6-2.2,2.6-3.3l1.6-2
		c0.1,0.4,0.1,0.8,0,1.4c-0.1,0.6-0.2,1.2-0.3,1.8c-0.4,1.5-0.7,2.9-0.9,4.1s-0.5,2.3-0.6,3.3c-0.1,1-0.2,2-0.3,2.9
		c0,0.9,0,1.9,0.1,2.8c0.1,1.1,0.4,2.1,0.8,2.9c0.4,0.8,0.9,1.5,1.4,2s1.2,0.9,1.9,1.1c0.7,0.2,1.4,0.4,2,0.4c1.1,0,2.1-0.4,3.1-1.2
		c1-0.8,1.9-1.7,2.7-2.9c0.1-0.1,0.2-0.3,0.3-0.4c0.2,0.4,0.5,0.8,0.8,1.2c0.6,0.8,1.4,1.4,2.3,2s2,0.9,3.2,1c1.3,0,2.6-0.5,3.7-1.5
		s2.2-2.1,3.2-3.5c0.4,1.4,1,2.6,1.9,3.6c0.9,0.9,2.2,1.5,3.7,1.6c0.7,0,1.3,0,1.8-0.2c0.3-0.1,0.6-0.2,0.8-0.3
		c-0.3,1.2-0.5,2.4-0.7,3.7c-0.3,1.6-0.4,3.1-0.5,4.7c-0.1,1.6,0,3.2,0.1,4.8c0.1,0.4,0.5,0.9,1.1,1.3c0.6,0.4,1.3,0.8,1.9,1
		c0.7,0.3,1.3,0.4,1.8,0.4s0.8-0.2,0.8-0.6c-0.1-1.4-0.1-2.9,0-4.4c0.1-1.5,0.3-3,0.6-4.5s0.6-2.9,1-4.4c0.4-1.4,0.8-2.8,1.2-4.1
		c0.1-0.2,0.1-0.3,0.2-0.5c0-0.2,0.1-0.3,0.2-0.5c0.6,0.9,1.5,1.7,2.6,2.4c1.1,0.6,2.4,1,3.9,1c1.7-0.2,3.2-0.8,4.8-1.8
		c1.5-1,2.8-2.3,4-3.8c0.7-1,1.3-2,1.9-3.1c0,0.2-0.1,0.5-0.1,0.7v0c-0.1,0.6-0.1,1.1-0.1,1.7c0,0.5,0.1,1.1,0.1,1.6
		c0.2,1.4,0.7,2.6,1.4,3.5c0.7,0.9,1.7,1.4,3,1.5c0.6,0,1.2-0.1,1.7-0.3s1-0.4,1.5-0.6s0.9-0.5,1.2-0.8c0.4-0.3,0.7-0.6,0.9-0.8
		c1.5-1.6,2.9-3.5,4.2-5.7s2.4-4.3,3.3-6.3l0,0.1C276.3,38.5,276.2,38.2,276,37.9z M179.8,32.6c-0.5-0.1-0.8-0.1-1.1,0.1l0.3,0.8
		c0.1,0.6,0,1.4-0.1,2.3c-0.1,0.9-0.2,1.9-0.4,2.9c-0.3,0.7-0.7,1.6-1.2,2.5c-0.5,0.9-1,1.8-1.6,2.6c-0.5,0.8-1.1,1.5-1.6,2.1
		c-0.5,0.6-1,1-1.4,1.1c-0.9,0.3-1.6,0.1-2-0.3c-0.4-0.5-0.6-1.1-0.7-1.8c-0.1-0.5-0.2-1-0.2-1.6c0-0.5,0-1,0.1-1.3
		c0.1-1.2,0.4-2.6,0.9-4.2c0.4-1.5,1-3,1.7-4.3c0.7-1.3,1.5-2.5,2.5-3.3c1-0.9,2.1-1.3,3.2-1.3c0.4,0,0.8,0.1,1,0.3
		c0.3,0.2,0.5,0.4,0.7,0.7c0.2,0.3,0.4,0.6,0.5,1c0.1,0.4,0.2,0.7,0.3,1c0,0.1,0.1,0.3,0.1,0.4c0,0.1,0.1,0.2,0.1,0.3
		c0,0.2,0.1,0.4,0.3,0.5C180.7,32.8,180.2,32.7,179.8,32.6z M227.9,32.6c-0.5-0.1-0.8-0.1-1.1,0.1l0.3,0.8c0.1,0.6,0,1.4-0.1,2.3
		s-0.2,1.9-0.4,2.9c-0.3,0.7-0.7,1.6-1.2,2.5s-1,1.8-1.6,2.6c-0.5,0.8-1.1,1.5-1.6,2.1c-0.5,0.6-1,1-1.4,1.1c-0.9,0.3-1.6,0.1-2-0.3
		c-0.4-0.5-0.6-1.1-0.7-1.8c-0.1-0.5-0.2-1-0.2-1.6c0-0.5,0-1,0.1-1.3c0.1-1.2,0.4-2.6,0.9-4.2s1-3,1.7-4.3c0.7-1.3,1.5-2.5,2.5-3.3
		c1-0.9,2.1-1.3,3.2-1.3c0.4,0,0.8,0.1,1,0.3c0.3,0.2,0.5,0.4,0.7,0.7c0.2,0.3,0.4,0.6,0.5,1c0.1,0.4,0.2,0.7,0.3,1
		c0,0.1,0.1,0.3,0.1,0.4c0,0.1,0.1,0.2,0.1,0.3c0,0.2,0.1,0.4,0.3,0.5C228.9,32.8,228.4,32.7,227.9,32.6z M255,34.1
		c-0.2,1.1-0.5,2.3-0.9,3.4c-0.4,1.2-1,2.3-1.6,3.5c-0.6,1.2-1.3,2.2-2,3c-0.7,0.9-1.5,1.6-2.2,2.1c-0.8,0.5-1.5,0.7-2.2,0.7
		c-0.7-0.1-1.3-0.4-1.6-0.9c-0.4-0.6-0.6-1.2-0.7-1.9l-0.1-1.1l0.1-0.4h0c0.2-1.2,0.5-2.4,0.8-3.7c0.3-1.3,0.6-2.6,0.8-3.7
		c0.5-0.8,1.1-1.5,1.8-2.2c0.7-0.7,1.4-1.3,2.1-1.8c0.7-0.5,1.5-0.9,2.2-1.1c0.8-0.3,1.5-0.4,2.2-0.3c0.8,0,1.3,0.5,1.4,1.5
		C255.3,32,255.2,33,255,34.1z"/>
	<path d="M266.1,21.7c0.4,0.5,0.8,1,1.3,1.5c0.5,0.5,1,0.9,1.6,1.3c0.6,0.4,1,0.6,1.5,0.7c0.1-1,0.2-1.9,0.5-2.7
		c0.2-0.8,0.4-1.5,0.6-2.3c0.2-0.7,0.4-1.5,0.6-2.2s0.3-1.5,0.4-2.4c0-0.2-0.2-0.5-0.4-0.8s-0.5-0.8-0.9-1.2
		c-0.4-0.4-0.8-0.9-1.2-1.3s-0.9-0.9-1.4-1.2c-0.5-0.4-0.9-0.7-1.3-0.9c-0.4-0.2-0.7-0.3-1-0.3l-0.6,1c0.1,0.8,0.1,1.6,0,2.5
		c0,0.9-0.1,1.7-0.2,2.5c-0.1,0.8-0.1,1.6-0.1,2.4c0,0.8,0,1.5,0,2.1C265.5,20.8,265.7,21.2,266.1,21.7z"/>
</g>
</svg>
